# xmcd
#
# Track frame offsets:
#	150
#	18514
#	39224
#	70356
#	88243
#	118786
#	151230
#	174458
#	200082
#	222663
#	245286
#	265607
#	281714
#
# Disc length: 4007 seconds
# Revision: 0
# Processed by: cddbd v1.5.2PL0 Copyright (c) Steve Scherf et al.
# Submitted via: dBpowerAMP V12.0
#
DISCID=bd0fa50d
DTITLE=Jimmy Duck Holmes - All Night Long
DYEAR=2013
DGENRE=Blues
TTITLE0=Hard Time Killin' Floor Blues
TTITLE1=Train Train
TTITLE2=I'm Going To Leave You
TTITLE3=All Night Long
TTITLE4=Someday Baby
TTITLE5=Blues Ain't Nothing
TTITLE6=Red Rooster
TTITLE7=Devil Got My Woman
TTITLE8=Don't Get Mad
TTITLE9=Rock Me
TTITLE10=Six Little Puppies
TTITLE11=Hurry Hurry
TTITLE12=Rock Me [Take 2]
EXTD=
EXTT0=
EXTT1=
EXTT2=
EXTT3=
EXTT4=
EXTT5=
EXTT6=
EXTT7=
EXTT8=
EXTT9=
EXTT10=
EXTT11=
EXTT12=
PLAYORDER=
